<svg xmlns:xlink="http://www.w3.org/1999/xlink" xmlns="http://www.w3.org/2000/svg" width="32" height="32"><defs><symbol id="svg-basic-toc-active" viewBox="0 0 22.215 29.611"><path d="M3.579 29.611a3.7 3.7 0 01-3.572-3.7V4.377a.9.9 0 010-.222 3.751 3.751 0 010-.454A3.7 3.7 0 013.579 0H21.29a.925.925 0 010 1.85H3.579A1.851 1.851 0 001.857 3.7a1.75 1.75 0 001.722 1.852H21.29a.99.99 0 01.925.99v22.143a.926.926 0 01-.925.926zM3.708 4.4V2.961h16.656V4.4z"></path></symbol></defs><use xlink:href="#svg-basic-toc-active" fill="#1D428A"></use></svg>