<svg xmlns:xlink="http://www.w3.org/1999/xlink" xmlns="http://www.w3.org/2000/svg" width="32" height="32"><defs><symbol id="svg-basic-toc" viewBox="0 0 22.215 29.611"><path d="M3.579 29.611a3.7 3.7 0 01-3.572-3.7V4.377a.9.9 0 010-.222 3.751 3.751 0 010-.454A3.7 3.7 0 013.579 0H21.29a.925.925 0 110 1.85H3.579A1.856 1.856 0 001.857 3.7a1.75 1.75 0 001.722 1.852H21.29a.992.992 0 01.925.99v22.143a.927.927 0 01-.925.926zm-1.721-3.7a1.855 1.855 0 001.721 1.85h16.785V7.4H3.479a3.377 3.377 0 01-1.624-.418zM3.708 4.4V2.961h16.656V4.4z"></path></symbol></defs><use xlink:href="#svg-basic-toc" fill="#1D428A"></use></svg>