<?xml version="1.0" encoding="utf-8"?><svg xmlns="http://www.w3.org/2000/svg" xmlns:xlink="http://www.w3.org/1999/xlink"><symbol viewBox="0 0 18 18" id="Advice" xmlns="http://www.w3.org/2000/svg"><path d="M16.159 4.91h-1.023v6.136c0 .562-.46 1.022-1.022 1.022h-6.29l-1.892 2.046h5.113l3.069 3.068v-3.068h2.045c.562 0 1.023-.46 1.023-1.023v-7.16c0-.562-.46-1.022-1.023-1.022z"/><path d="M1.841.818h10.227c.563 0 1.023.46 1.023 1.023v7.16c0 .562-.46 1.022-1.023 1.022H6.955L3.887 13.09v-3.068H1.84A1.025 1.025 0 01.818 9V1.841c0-.562.46-1.023 1.023-1.023z"/></symbol><symbol viewBox="0 0 32 32" id="Arrow-Left-1" xmlns="http://www.w3.org/2000/svg"><path d="M22.2.6l3 2.8L12.6 16l12.6 12.6-3 2.8L6.8 16 22.2.6z"/></symbol><symbol viewBox="0 0 32 32" id="Arrow-Right-1" xmlns="http://www.w3.org/2000/svg"><path d="M9.8 31.4l-3-2.8L19.4 16 6.8 3.4l3-2.8L25.2 16 9.8 31.4z"/></symbol><symbol viewBox="0 0 32 32" id="Arrow-Up-1" xmlns="http://www.w3.org/2000/svg"><path d="M2.6 13.4l2.8 2.8L14 7.6V32h4V7.6l8.6 8.6 2.8-2.8L16 0 2.6 13.4z"/></symbol><symbol viewBox="0 0 32 32" id="Comment-Empty" xmlns="http://www.w3.org/2000/svg"><path d="M2.545 2C1.147 2 0 3.13 0 4.506v10.023c0 1.375 1.148 2.506 2.545 2.506h1.068l.023 4.295c.001.151.05.298.141.42s.219.212.365.258c.146.046.304.045.45-.002s.273-.139.362-.262l3.409-4.709h2.545v4.653c0 1.376 1.148 2.506 2.545 2.506h10.182l3.409 4.709c.09.123.216.215.362.262s.303.048.45.002c.146-.046.274-.136.365-.258s.14-.269.141-.42l.023-4.295h1.068c1.398 0 2.545-1.13 2.545-2.506V11.666c0-1.376-1.148-2.506-2.545-2.506h-8.364V4.507c0-1.376-1.148-2.506-2.546-2.506h-16zm0 1.432h16c.617 0 1.091.467 1.091 1.074v4.653h-6.182c-1.398 0-2.545 1.13-2.545 2.506v3.937h-2.92c-.115-.001-.228.025-.331.075s-.192.124-.26.215L5.08 19.091l-.011-2.785c-.003-.188-.081-.367-.217-.499s-.319-.206-.51-.206H2.547c-.617 0-1.091-.467-1.091-1.074V4.504c0-.607.474-1.074 1.091-1.074zm10.91 7.159h16c.617 0 1.091.466 1.091 1.074v10.022c0 .607-.474 1.074-1.091 1.074h-1.796c-.191 0-.374.074-.51.206s-.214.311-.217.499l-.011 2.785-2.318-3.199c-.068-.091-.157-.165-.26-.215s-.216-.076-.331-.075H13.455c-.617 0-1.091-.467-1.091-1.074V11.666c0-.608.474-1.074 1.091-1.074z"/></symbol><symbol viewBox="0 0 32 32" id="Comment-Plus" xmlns="http://www.w3.org/2000/svg"><path d="M30 0H2a2 2 0 00-2 2v20a2 2 0 002 2h6v8l12-8h10a2 2 0 002-2V2a2 2 0 00-2-2zM17 11h6c.6 0 1 .4 1 1s-.4 1-1 1h-6v6c0 .6-.4 1-1 1s-1-.4-1-1v-6H9c-.6 0-1-.4-1-1s.4-1 1-1h6V5c0-.6.4-1 1-1s1 .4 1 1v6z"/></symbol><symbol viewBox="0 0 32 32" id="Comment-Reg" xmlns="http://www.w3.org/2000/svg"><path d="M2 0h28a2 2 0 012 2v20a2 2 0 01-2 2H20L8 32v-8H2a2 2 0 01-2-2V2a2 2 0 012-2z"/></symbol><symbol viewBox="0 0 32 32" id="Data-Empty" xmlns="http://www.w3.org/2000/svg"><path d="M30.887 18.829L24.41 13H7.589l-6.477 5.829-.892-.991 6.857-6.171h17.845l6.857 6.171-.892.991z"/><path d="M30 29.333H2c-1.103 0-2-.897-2-2v-9.667h10.667v.667c0 1.654 1.346 3 3 3h4.667c1.654 0 3-1.346 3-3v-.667h10.667v9.667c0 1.103-.897 2-2 2zM1.333 19v8.333c0 .368.299.667.667.667h28a.667.667 0 00.667-.667V19h-8.051a4.341 4.341 0 01-4.282 3.667h-4.667A4.339 4.339 0 019.385 19H1.334zM11.896 6.309L9.563 2.642l-1.125.716 2.333 3.667 1.125-.716zm12-2.952l-1.125-.716-2.333 3.667 1.125.716 2.333-3.667zM16.667 2h-1.333v4.333h1.333V2z"/></symbol><symbol viewBox="0 0 32 32" id="Facebook" xmlns="http://www.w3.org/2000/svg"><path d="M22.912 10.485L22.33 16h-4.409v16h-6.622V16h-3.3v-5.515h3.3v-3.32c0-4.486 1.865-7.164 7.168-7.164h4.407v5.515h-2.758c-2.058 0-2.195.777-2.195 2.214v2.756h4.99z"/></symbol><symbol viewBox="0 0 18 18" id="Flip" xmlns="http://www.w3.org/2000/svg"><g clip-path="url(#ajclip0)"><path d="M6.08 14.983a.637.637 0 00.47.204.708.708 0 00.47-.204l1.804-1.96c.235-.286.235-.694 0-.94l-1.803-1.96c-.235-.286-.666-.286-.94-.04-.275.244-.275.694-.04.98l.705.775H3.768c-.94 0-1.685-.775-1.685-1.756 0-.98.744-1.756 1.685-1.756h.588c.352 0 .666-.327.666-.694 0-.368-.314-.694-.666-.694h-.588C2.122 6.938.75 8.325.75 10.082c0 1.716 1.333 3.145 3.018 3.145h2.978l-.705.776c-.235.286-.196.735.04.98zm8.165-8.045c-.35 0-.663.32-.663.683 0 .361.312.683.663.683.937 0 1.678.763 1.678 1.727 0 .964-.741 1.728-1.678 1.728h-3.55c-.352 0-.664.321-.664.683 0 .362.312.683.664.683h3.55c1.64 0 3.005-1.366 3.005-3.094 0-1.687-1.327-3.094-3.005-3.094z"/><path d="M6.495 8.924c.33 0 .622-.306.622-.65V2.318l3.733 1.337v6.76c0 .343.292.649.622.649.329 0 .622-.306.622-.65V3.157c0-.267-.183-.534-.403-.61L6.714.79a.564.564 0 00-.548.076.678.678 0 00-.257.535v6.836c-.036.381.257.687.586.687zm4.98 5.232c-.327 0-.618.272-.618.578v.884l-4.402.476c-.327.034-.582.306-.545.646.036.306.29.51.618.51h.073l4.947-.544c.328-.034.546-.272.546-.578v-1.394c0-.306-.291-.578-.619-.578z"/></g><defs><clipPath id="ajclip0"><path d="M.75.75h16.5v16.5H.75V.75z"/></clipPath></defs></symbol><symbol viewBox="0 0 32 32" id="Flip-Image" xmlns="http://www.w3.org/2000/svg"><path d="M10.337 27.604c.228.238.532.396.912.396.304 0 .684-.158.912-.396l3.496-3.802c.456-.554.456-1.347 0-1.822l-3.496-3.802c-.456-.554-1.292-.554-1.824-.079s-.532 1.347-.076 1.901l1.368 1.505H5.852c-1.824 0-3.268-1.505-3.268-3.406s1.444-3.406 3.268-3.406h1.14c.684 0 1.292-.634 1.292-1.347s-.608-1.347-1.292-1.347h-1.14c-3.192 0-5.853 2.693-5.853 6.099 0 3.327 2.584 6.099 5.853 6.099h5.777l-1.368 1.505c-.456.554-.38 1.426.076 1.901zM26.173 12c-.681 0-1.287.623-1.287 1.325s.605 1.325 1.287 1.325c1.816 0 3.254 1.481 3.254 3.351s-1.438 3.351-3.254 3.351h-6.887c-.681 0-1.286.623-1.286 1.325s.605 1.325 1.286 1.325h6.887c3.178 0 5.827-2.649 5.827-6 0-3.273-2.573-6-5.827-6z"/><path d="M11.142 15.852c.639 0 1.207-.592 1.207-1.259V3.039l7.239 2.592V18.74c0 .667.568 1.259 1.207 1.259s1.206-.593 1.206-1.259V4.668c0-.518-.355-1.037-.781-1.185L11.568.076c-.355-.148-.781-.074-1.065.148s-.497.593-.497 1.037v13.257c-.071.741.497 1.333 1.136 1.333zM20.801 26c-.635 0-1.199.527-1.199 1.121v1.714l-8.536.923c-.635.066-1.129.593-1.058 1.253.071.593.564.989 1.199.989h.141l9.595-1.055c.635-.066 1.058-.527 1.058-1.121v-2.703c0-.593-.564-1.121-1.199-1.121z"/></symbol><symbol viewBox="0 0 32 32" id="Infographic" xmlns="http://www.w3.org/2000/svg"><path d="M18.275 17.05h-4.637c-.613 0-1.137.525-1.137 1.137v10.5c0 .613.525 1.138 1.137 1.138h4.637c.613 0 1.137-.525 1.137-1.138v-10.5c.087-.613-.438-1.137-1.137-1.137zm-10.5 4.725H3.137c-.612 0-1.138.525-1.138 1.137v5.862c0 .613.525 1.138 1.138 1.138h4.638c.613 0 1.137-.525 1.137-1.138v-5.862c.088-.612-.438-1.137-1.138-1.137zm21-9.362h-4.637c-.613 0-1.138.525-1.138 1.137v15.137c0 .613.525 1.138 1.138 1.138h4.637c.612 0 1.137-.525 1.137-1.138V13.55c.088-.613-.437-1.137-1.137-1.137zm-11.989.874l7.35-7.35v4.2h2.362v-7c0-.612-.525-1.137-1.137-1.137h-7v2.363h4.2l-6.475 6.475-3.85-3.85c-.438-.438-1.225-.438-1.662 0L4.712 12.85l1.663 1.662 4.988-4.987 3.85 3.85c.438.35 1.138.35 1.575-.088z"/></symbol><symbol viewBox="0 0 18 17" id="Instagram" xmlns="http://www.w3.org/2000/svg"><path d="M12.619 0H6.244A5.313 5.313 0 00.93 5.313v6.375A5.313 5.313 0 006.244 17h6.375a5.313 5.313 0 005.312-5.313V5.314A5.313 5.313 0 0012.62 0zm3.718 11.688a3.723 3.723 0 01-3.718 3.718H6.244a3.723 3.723 0 01-3.72-3.719V5.314a3.723 3.723 0 013.72-3.72h6.375a3.723 3.723 0 013.718 3.72v6.375z"/><path d="M9.431 4.25a4.25 4.25 0 100 8.5 4.25 4.25 0 000-8.5zm0 6.906A2.66 2.66 0 016.775 8.5 2.66 2.66 0 019.43 5.844 2.66 2.66 0 0112.087 8.5a2.66 2.66 0 01-2.656 2.656zm4.781-6.906a.531.531 0 100-1.063.531.531 0 000 1.063z"/></symbol><symbol viewBox="0 0 32 32" id="Interactive" xmlns="http://www.w3.org/2000/svg"><path d="M17.236 14.092c-.159 0-.318-.08-.478-.16-.398-.239-.478-.717-.159-1.115a4.77 4.77 0 00.877-2.71 4.795 4.795 0 00-4.781-4.78 4.795 4.795 0 00-4.781 4.78c0 .957.319 1.913.876 2.71.24.398.16.876-.159 1.115-.398.24-.876.16-1.115-.159-.718-1.036-1.116-2.31-1.116-3.665 0-3.506 2.868-6.375 6.374-6.375s6.375 2.869 6.375 6.375c0 1.275-.399 2.55-1.116 3.665-.319.24-.558.319-.797.319z"/><path d="M20.742 17.677l-6.454-1.195v-5.578c0-.876-.717-1.593-1.593-1.593-.877 0-1.594.717-1.594 1.593v10.359h-.797v-2.39h-.796c-.877 0-1.594.716-1.594 1.593v2.31c0 1.116.398 2.152 1.036 2.949l2.151 2.709H21.46l1.274-8.048a2.462 2.462 0 00-1.992-2.709z"/></symbol><symbol viewBox="0 0 32 32" id="Link" xmlns="http://www.w3.org/2000/svg"><path d="M9.19 16.097a1.173 1.173 0 011.998.826 1.168 1.168 0 01-.342.827l-2.484 2.48a2.335 2.335 0 000 3.307 2.346 2.346 0 003.312 0l5.795-5.787a1.167 1.167 0 000-1.653 1.169 1.169 0 01.828-1.996c.31 0 .608.123.828.342a3.502 3.502 0 010 4.96L13.33 25.19a4.69 4.69 0 01-7.64-1.516 4.67 4.67 0 011.015-5.096l2.486-2.482v.001zm14.047-.834a1.173 1.173 0 01-2-.826 1.168 1.168 0 01.344-.826l2.484-2.481a2.335 2.335 0 000-3.306 2.345 2.345 0 00-3.313 0l-5.794 5.787a1.167 1.167 0 000 1.652 1.168 1.168 0 01-.828 1.996c-.31 0-.608-.123-.828-.342a3.503 3.503 0 010-4.96L19.1 6.17a4.69 4.69 0 017.64 1.517 4.67 4.67 0 01-1.016 5.096l-2.486 2.481z"/></symbol><symbol viewBox="0 0 32 32" id="Mail" xmlns="http://www.w3.org/2000/svg"><path d="M17.416 18.605c-.436.257-.922.392-1.416.392s-.981-.135-1.416-.392L.025 10c-.005.045-.024.086-.024.132v18.764c0 .293.105.574.293.781s.442.323.707.323h30c.265 0 .52-.116.707-.323s.293-.488.293-.781V10.132c0-.046-.019-.086-.024-.131l-14.56 8.604z"/><path d="M31 4H1c-.265 0-.52.123-.707.341S0 4.855 0 5.164v2.327c0 .211.049.417.142.598s.226.329.386.428l15 9.345c.145.091.307.138.472.138s.327-.047.472-.138l15-9.345c.16-.099.293-.247.386-.428S32 7.702 32 7.491V5.164c0-.309-.105-.605-.293-.823S31.265 4 31 4z"/></symbol><symbol viewBox="0 0 32 32" id="Minus" xmlns="http://www.w3.org/2000/svg"><path d="M26.5 14h-21c-.9 0-1.5.8-1.5 2s.6 2 1.5 2h21c.9 0 1.5-.8 1.5-2s-.6-2-1.5-2z"/></symbol><symbol viewBox="0 0 32 32" id="New-Tab" xmlns="http://www.w3.org/2000/svg"><path d="M21.647 3.765a1.883 1.883 0 110-3.765h8.471C31.157 0 32 .844 32 1.882v8.471a1.883 1.883 0 01-3.764 0V6.426L17.331 17.33a1.882 1.882 0 01-2.662-2.662L25.573 3.764h-3.927zm6.588 14.118a1.882 1.882 0 113.764 0v12.235A1.883 1.883 0 0130.117 32H1.882A1.883 1.883 0 010 30.118V1.883C0 .844.843.001 1.882.001h12.235a1.883 1.883 0 110 3.765H3.765v24.47h24.47V17.883z"/></symbol><symbol viewBox="0 0 32 32" id="Pin" xmlns="http://www.w3.org/2000/svg"><path d="M.365 29.5l8.38-9.81 3.555 3.555-9.825 8.38c-.28.234-.635.359-1 .35a1.503 1.503 0 01-1.339-.886c-.116-.259-.157-.547-.116-.828s.16-.545.345-.761zm18.955-4c.223.213.503.356.806.413s.616.023.9-.096A1.59 1.59 0 0022 24.381v-5.415l8.905-5.4a2 2 0 00.624-2.895L21.344.501a2.013 2.013 0 00-1.586-.329 1.997 1.997 0 00-1.309.953L13.039 10h-5.41a1.583 1.583 0 00-1.551 1.879c.058.305.204.588.421.811l12.82 12.81z"/></symbol><symbol viewBox="0 0 32 32" id="Plus" xmlns="http://www.w3.org/2000/svg"><path d="M30 14H18V2c0-1.2-.8-2-2-2s-2 .8-2 2v12H2c-1.2 0-2 .8-2 2s.8 2 2 2h12v12c0 1.2.8 2 2 2s2-.8 2-2V18h12c1.2 0 2-.8 2-2s-.8-2-2-2z"/></symbol><symbol viewBox="0 0 32 32" id="Quiz" xmlns="http://www.w3.org/2000/svg"><path d="M18.062 10.412a2.493 2.493 0 012.139-.7h.006c.265-.025.506-.134.724-.287l-3.488-3.488a2.066 2.066 0 00-2.919 0l-3.659 3.659a1.62 1.62 0 01-.271-.726l-.002-.008a2.7 2.7 0 00-.758-2.319 2.705 2.705 0 00-3.824 3.824 2.696 2.696 0 002.319.759l.008.001c.263.025.504.127.727.27l-3.66 3.66a2.065 2.065 0 000 2.918l3.489 3.488a1.516 1.516 0 00.288-.73 2.486 2.486 0 01.698-2.138 2.494 2.494 0 113.526 3.525 2.489 2.489 0 01-2.138.699l-.008.001a1.497 1.497 0 00-.723.287l3.49 3.488a2.063 2.063 0 002.917 0l3.66-3.659c.144.22.246.462.27.726l.001.008a2.703 2.703 0 004.583 2.32 2.703 2.703 0 00-2.32-4.583l-.007-.002a1.595 1.595 0 01-.727-.27l3.66-3.66a2.064 2.064 0 000-2.917l-3.489-3.488a1.52 1.52 0 00-.287.723v.007a2.493 2.493 0 01-.7 2.138 2.495 2.495 0 01-3.526 0 2.496 2.496 0 01.001-3.527z"/></symbol><symbol viewBox="0 0 32 32" id="Rss" xmlns="http://www.w3.org/2000/svg"><path d="M10 26c0 1.4-.8 2.7-2 3.5-1.2.7-2.8.7-4 0s-2-2-2-3.5.8-2.7 2-3.5c1.2-.7 2.8-.7 4 0s2 2 2 3.5zm20 4h-5.4C24.6 17.6 14.4 7.4 2 7.4V2c15.4 0 28 12.6 28 28z"/><path d="M20.6 30h-5.2c0-7.4-6-13.4-13.4-13.4v-5.2c10.2 0 18.6 8.4 18.6 18.6z"/></symbol><symbol viewBox="0 0 32 32" id="Save" xmlns="http://www.w3.org/2000/svg"><path d="M8.686 26.667a1.231 1.231 0 01-1.052-.617 1.265 1.265 0 01-.167-.628V7.166a2.87 2.87 0 01.758-2.012 2.754 2.754 0 011.924-.887h11.702c.73.026 1.422.345 1.924.887a2.87 2.87 0 01.758 2.012v18.256c-.002.217-.059.43-.166.618-.106.188-.26.344-.444.452a1.2 1.2 0 01-1.219 0l-6.911-3.994-6.497 3.982a1.2 1.2 0 01-.61.187z"/></symbol><symbol viewBox="0 0 32 32" id="Save-1" xmlns="http://www.w3.org/2000/svg"><path fill-rule="evenodd" clip-rule="evenodd" d="M9.905 4.767c-.51 0-1.003.207-1.367.578-.365.373-.571.88-.571 1.41v18.928l7.738-5.643a.5.5 0 01.59 0l7.738 5.643V6.755a2.02 2.02 0 00-.57-1.41 1.913 1.913 0 00-1.368-.578H9.905zm-2.081-.121a2.913 2.913 0 012.08-.88h12.191c.783 0 1.531.318 2.081.88.55.561.857 1.32.857 2.11v19.91a.5.5 0 01-.794.405L16 21.063l-8.239 6.008a.5.5 0 01-.794-.404V6.755c0-.789.307-1.548.857-2.11z"/></symbol><symbol viewBox="0 0 32 32" id="Trend" xmlns="http://www.w3.org/2000/svg"><path d="M24 6v3.2h2.56l-8.96 8.96-6.4-6.4L0 22.96l2.24 2.24 8.96-8.96 6.4 6.4 11.2-11.2V14H32V6h-8z"/></symbol><symbol viewBox="0 0 32 32" id="Twitter" xmlns="http://www.w3.org/2000/svg"><path d="M32 6c-1.2.6-2.4.8-3.8 1 1.4-.8 2.4-2 2.8-3.6-1.2.8-2.6 1.2-4.2 1.6-1.2-1.2-3-2-4.8-2-3.4 0-6.4 3-6.4 6.6 0 .6 0 1 .2 1.4-5.4-.2-10.4-2.8-13.6-6.8-.6 1-.8 2-.8 3.4 0 2.2 1.2 4.2 3 5.4-1 0-2-.4-3-.8 0 3.2 2.2 5.8 5.2 6.4-.6.2-1.2.2-1.8.2-.4 0-.8 0-1.2-.2.8 2.6 3.2 4.6 6.2 4.6C7.6 25 4.8 26 1.6 26H0c3 1.8 6.4 3 10 3 12 0 18.6-10 18.6-18.6v-.8C30 8.6 31.2 7.4 32 6z"/></symbol><symbol viewBox="0 0 20 15" id="Youtube" xmlns="http://www.w3.org/2000/svg"><path d="M19.833 3.244s-.166-1.417-.833-2c-.75-.833-1.583-.833-2-.833-2.833-.167-7-.167-7-.167s-4.167 0-7 .167c-.417.083-1.25.083-2 .833-.583.583-.833 2-.833 2S0 4.827 0 6.494v1.5c0 1.583.167 3.25.167 3.25s.166 1.417.833 2c.75.834 1.75.75 2.167.834 1.583.166 6.833.166 6.833.166s4.167 0 7-.25c.417-.083 1.25-.083 2-.833.583-.583.833-2 .833-2S20 9.577 20 7.91v-1.5a34.59 34.59 0 00-.167-3.167zM7.917 9.827V4.244l5.416 2.833-5.416 2.75z"/></symbol><symbol viewBox="0 0 21 11" id="arrow01" xmlns="http://www.w3.org/2000/svg"><path fill-rule="evenodd" clip-rule="evenodd" d="M15.607 0l5.108 5.091-5.108 5.091-.851-.848L18.41 5.69H0v-1.2h18.41L14.756.85l.85-.849z"/></symbol><symbol viewBox="0 0 32 32" id="arrow02" xmlns="http://www.w3.org/2000/svg"><path fill-rule="evenodd" clip-rule="evenodd" d="M10.393 10l-5.107 5.091 5.107 5.091.851-.848L7.59 15.69H26v-1.2H7.59l3.654-3.643-.85-.848z"/></symbol><symbol viewBox="0 0 32 32" id="bookmard" xmlns="http://www.w3.org/2000/svg"><path d="M8.686 26.667a1.231 1.231 0 01-1.052-.617 1.265 1.265 0 01-.167-.628V7.166a2.87 2.87 0 01.758-2.012 2.754 2.754 0 011.924-.887h11.702c.73.026 1.422.345 1.924.887a2.87 2.87 0 01.758 2.012v18.256c-.002.217-.059.43-.166.618-.106.188-.26.344-.444.452a1.2 1.2 0 01-1.219 0l-6.911-3.994-6.497 3.982a1.2 1.2 0 01-.61.187z"/></symbol><symbol viewBox="0 0 32 32" id="bookmard2" xmlns="http://www.w3.org/2000/svg"><path fill-rule="evenodd" clip-rule="evenodd" d="M9.905 4.767c-.51 0-1.003.207-1.367.578-.365.373-.571.88-.571 1.41v18.928l7.738-5.643a.5.5 0 01.59 0l7.738 5.643V6.755a2.02 2.02 0 00-.57-1.41 1.913 1.913 0 00-1.368-.578H9.905zm-2.081-.121a2.913 2.913 0 012.08-.88h12.191c.783 0 1.531.318 2.081.88.55.561.857 1.32.857 2.11v19.91a.5.5 0 01-.794.405L16 21.063l-8.239 6.008a.5.5 0 01-.794-.404V6.755c0-.789.307-1.548.857-2.11z"/></symbol><symbol viewBox="0 0 32 32" id="bookmark2" xmlns="http://www.w3.org/2000/svg"><path d="M24.533 26.667L16 20.444l-8.533 6.223V6.755c0-.66.257-1.293.714-1.76a2.413 2.413 0 011.724-.728h12.19c.647 0 1.267.262 1.724.729.457.466.714 1.1.714 1.76v19.91z" stroke="#222" stroke-linecap="round" stroke-linejoin="round"/></symbol><symbol viewBox="0 0 32 32" id="cart" xmlns="http://www.w3.org/2000/svg"><path d="M12 29a3 3 0 11-6 0 3 3 0 016 0zm20 0a3 3 0 11-6 0 3 3 0 016 0zm0-13V4H8a2 2 0 00-2-2H0v2h4l1.502 12.877A4 4 0 008 24h24v-2H8a2 2 0 01-2-2v-.02L32 16z"/></symbol><symbol viewBox="0 0 32 32" id="chat" xmlns="http://www.w3.org/2000/svg"><path d="M24.391 12.69h-1.306v7.837a1.31 1.31 0 01-1.306 1.306h-8.033l-2.416 2.612h6.53l3.919 3.918v-3.918h2.612a1.31 1.31 0 001.306-1.306v-9.142a1.31 1.31 0 00-1.306-1.306z"/><path d="M6.106 7.467h13.06a1.31 1.31 0 011.307 1.306v9.142a1.31 1.31 0 01-1.306 1.306h-6.53l-3.92 3.919v-3.918H6.106A1.31 1.31 0 014.8 17.915V8.773a1.31 1.31 0 011.306-1.306z"/></symbol><symbol viewBox="0 0 25 26" id="close2" xmlns="http://www.w3.org/2000/svg"><path d="M.413 2.145a1.225 1.225 0 01-.404-.88A1.252 1.252 0 01.36.36 1.198 1.198 0 011.245 0a1.178 1.178 0 01.862.412L12.27 10.82 22.452.412a1.194 1.194 0 01.852-.376 1.17 1.17 0 01.858.361 1.223 1.223 0 01.345.881 1.242 1.242 0 01-.377.867l-10.166 10.39 10.168 10.413a1.234 1.234 0 01-.006 1.71 1.18 1.18 0 01-.832.36 1.178 1.178 0 01-.84-.34L12.27 14.275 2.105 24.685a1.203 1.203 0 01-.863.42 1.177 1.177 0 01-.89-.358 1.228 1.228 0 01-.351-.91 1.25 1.25 0 01.411-.883l10.164-10.419L.413 2.145z"/></symbol><symbol viewBox="0 0 32 32" id="comment" xmlns="http://www.w3.org/2000/svg"><path fill-rule="evenodd" clip-rule="evenodd" d="M7.893 5.333c-1.12 0-2.016.907-2.016 2.027l-.01 18.24 4.053-4.053h14.187c1.12 0 2.026-.907 2.026-2.027V7.36c0-1.12-.907-2.027-2.026-2.027H7.893zM11 9a1 1 0 100 2h4a1 1 0 100-2h-4zm-1 4.5a1 1 0 011-1h11a1 1 0 110 2H11a1 1 0 01-1-1zm1 2.5a1 1 0 100 2h11a1 1 0 100-2H11z"/></symbol><symbol viewBox="0 0 12 12" id="comment2" xmlns="http://www.w3.org/2000/svg"><path fill-rule="evenodd" clip-rule="evenodd" d="M2.255 8.75H11V1H1v8.826L2.255 8.75zM0 12V.75C0 .338.338 0 .75 0h10.5c.412 0 .75.338.75.75V9c0 .412-.338.75-.75.75H2.625L0 12z"/></symbol><symbol viewBox="0 0 32 32" id="inforgraphic" xmlns="http://www.w3.org/2000/svg"><path d="M17.56 16.72h-3.18c-.42 0-.78.36-.78.78v7.2c0 .42.36.78.78.78h3.18c.42 0 .78-.36.78-.78v-7.2c.06-.42-.3-.78-.78-.78zm-7.2 3.24H7.18c-.42 0-.78.36-.78.78v4.02c0 .42.36.78.78.78h3.18c.42 0 .78-.36.78-.78v-4.02c.06-.42-.3-.78-.78-.78zm14.4-6.42h-3.18c-.42 0-.78.36-.78.78V24.7c0 .42.36.78.78.78h3.18c.42 0 .78-.36.78-.78V14.32c.06-.42-.3-.78-.78-.78zm-8.22.6l5.04-5.04v2.88h1.62v-4.8c0-.42-.36-.78-.78-.78h-4.8v1.62h2.88l-4.44 4.44-2.64-2.64c-.3-.3-.84-.3-1.14 0l-4.02 4.02 1.14 1.14 3.42-3.42 2.64 2.64c.3.24.78.24 1.08-.06z"/></symbol><symbol viewBox="0 0 32 32" id="like" xmlns="http://www.w3.org/2000/svg"><path fill-rule="evenodd" clip-rule="evenodd" d="M12.064 3.03a.5.5 0 01.47-.33h1.511c.54 0 1.053.222 1.428.61.375.39.583.912.583 1.454v7.323h7.055c.546 0 1.084.13 1.571.38.488.25.911.614 1.238 1.06a3.724 3.724 0 01.586 3.155l-2.099 7.822a3.635 3.635 0 01-1.257 1.917 3.456 3.456 0 01-2.138.746H8a.5.5 0 01-.5-.5V15.715a.5.5 0 01.03-.17L12.064 3.03zm.82.67L8.5 15.803v10.364h12.512c.547 0 1.08-.186 1.52-.531.44-.346.76-.834.91-1.39l2.098-7.823c.105-.393.122-.806.048-1.206a2.683 2.683 0 00-.474-1.099 2.548 2.548 0 00-.889-.76 2.438 2.438 0 00-1.114-.271h-7.555a.5.5 0 01-.5-.5V4.764c0-.287-.11-.56-.302-.758a.986.986 0 00-.709-.306h-1.16z"/></symbol><symbol viewBox="0 0 32 32" id="like2" xmlns="http://www.w3.org/2000/svg"><path d="M8 15.716L12.534 3.2h1.511c.4 0 .785.165 1.069.458.283.294.442.691.442 1.106v7.823h7.555c.466 0 .925.111 1.343.325a3.06 3.06 0 011.063.91 3.224 3.224 0 01.506 2.73l-2.099 7.823a3.135 3.135 0 01-1.083 1.654 2.956 2.956 0 01-1.83.638H8V15.715z"/><path fill-rule="evenodd" clip-rule="evenodd" d="M12.064 3.03a.5.5 0 01.47-.33h1.511c.54 0 1.053.222 1.428.61.375.39.583.912.583 1.454v7.323h7.055c.546 0 1.084.13 1.571.38.488.25.911.614 1.238 1.06a3.724 3.724 0 01.586 3.155l-2.099 7.822a3.635 3.635 0 01-1.257 1.917 3.456 3.456 0 01-2.138.746H8a.5.5 0 01-.5-.5V15.715a.5.5 0 01.03-.17L12.064 3.03zm.82.67L8.5 15.803v10.364h12.512c.547 0 1.08-.186 1.52-.531.44-.346.76-.834.91-1.39l2.098-7.823c.105-.393.122-.806.048-1.206a2.683 2.683 0 00-.474-1.099 2.548 2.548 0 00-.889-.76 2.438 2.438 0 00-1.114-.271h-7.555a.5.5 0 01-.5-.5V4.764c0-.287-.11-.56-.302-.758a.986.986 0 00-.709-.306h-1.16z"/></symbol><symbol viewBox="0 0 32 32" id="next" xmlns="http://www.w3.org/2000/svg"><path d="M11.635 28.8a1.738 1.738 0 001.368-.663l8.465-10.741a1.815 1.815 0 000-2.274L12.704 4.38a1.73 1.73 0 00-2.471-.233 1.819 1.819 0 00-.228 2.524l7.835 9.597-7.572 9.596a1.824 1.824 0 00-.236 1.915c.144.309.371.569.655.75.285.18.614.275.948.27z"/></symbol><symbol viewBox="0 0 32 32" id="picture" xmlns="http://www.w3.org/2000/svg"><path d="M23.111 5.333H8.89A3.556 3.556 0 005.333 8.89v14.22a3.556 3.556 0 003.556 3.556H23.11a3.556 3.556 0 003.556-3.556V8.889a3.556 3.556 0 00-3.556-3.556zM8.89 7.703h14.22a1.185 1.185 0 011.185 1.186v9.908l-3.792-3.236a3.283 3.283 0 00-4.172 0l-8.628 7.195V8.889a1.185 1.185 0 011.185-1.185z"/><path d="M11.26 13.63a1.778 1.778 0 10-.001-3.556 1.778 1.778 0 000 3.555z"/></symbol><symbol viewBox="0 0 32 32" id="play" xmlns="http://www.w3.org/2000/svg"><path d="M10.882 4.266a4.229 4.229 0 012.619.9l10.274 8.232c.403.311.728.707.952 1.157a3.244 3.244 0 010 2.887c-.224.45-.55.846-.952 1.157l-10.274 8.232a4.3 4.3 0 01-2.151.874 4.344 4.344 0 01-2.301-.365 3.521 3.521 0 01-1.529-1.253 3.37 3.37 0 01-.587-1.856V7.767A3.37 3.37 0 017.52 5.91a3.52 3.52 0 011.529-1.252 4.607 4.607 0 011.833-.392z"/></symbol><symbol viewBox="0 0 38 47" id="play2" xmlns="http://www.w3.org/2000/svg"><path fill-rule="evenodd" clip-rule="evenodd" d="M.51.497a1 1 0 011.011.019l36 22a1 1 0 010 1.706l-36 22A1 1 0 010 45.37v-44A1 1 0 01.51.497zM2 3.152v40.434L35.082 23.37 2 3.152z"/></symbol><symbol viewBox="0 0 32 32" id="prev" xmlns="http://www.w3.org/2000/svg"><path d="M20.365 28.8a1.73 1.73 0 01-.757-.173 1.759 1.759 0 01-.61-.49l-8.466-10.741a1.814 1.814 0 01-.399-1.137c0-.415.141-.817.4-1.137L19.295 4.38a1.73 1.73 0 012.471-.233 1.819 1.819 0 01.228 2.524l-7.835 9.597 7.572 9.596a1.824 1.824 0 01.236 1.915 1.778 1.778 0 01-.655.75 1.725 1.725 0 01-.948.27z"/></symbol><symbol viewBox="0 0 32 32" id="review" xmlns="http://www.w3.org/2000/svg"><path d="M3.2 19.098l2.446-.305c.078.642.288 1.133.63 1.473.341.34.755.509 1.24.509.522 0 .96-.204 1.313-.611.36-.408.54-.958.54-1.65 0-.654-.171-1.172-.513-1.555-.342-.383-.758-.575-1.25-.575-.324 0-.71.065-1.16.195l.279-2.121c.683.018 1.205-.133 1.565-.454.36-.327.539-.76.539-1.297 0-.457-.132-.821-.396-1.093-.263-.272-.614-.408-1.052-.408a1.5 1.5 0 00-1.106.463c-.305.31-.491.76-.557 1.353l-2.33-.408c.163-.82.405-1.476.73-1.963.329-.494.784-.88 1.366-1.158.587-.284 1.244-.426 1.97-.426 1.24 0 2.235.407 2.985 1.222.617.667.926 1.42.926 2.26 0 1.192-.633 2.143-1.898 2.854.756.166 1.358.54 1.808 1.12.455.58.683 1.282.683 2.103 0 1.192-.422 2.208-1.268 3.048-.845.84-1.897 1.26-3.156 1.26-1.193 0-2.182-.353-2.967-1.057-.786-.71-1.241-1.636-1.367-2.779zm10.88 3.604v-2.603h2.527v2.603H14.08zm13.12-2.418v2.418h-8.857a6.377 6.377 0 01.863-2.594c.48-.821 1.427-1.908 2.841-3.26 1.14-1.093 1.838-1.834 2.096-2.224.347-.537.521-1.068.521-1.593 0-.58-.153-1.025-.458-1.334-.3-.315-.717-.472-1.25-.472-.528 0-.947.164-1.26.49-.311.328-.49.872-.539 1.631l-2.518-.26c.15-1.432.62-2.46 1.412-3.084.792-.623 1.78-.935 2.968-.935 1.3 0 2.323.36 3.066 1.083.743.723 1.115 1.621 1.115 2.696 0 .611-.108 1.195-.324 1.75-.21.55-.545 1.128-1.007 1.733-.306.401-.857.979-1.654 1.732-.798.753-1.304 1.254-1.52 1.5a4.74 4.74 0 00-.513.723H27.2z"/></symbol><symbol viewBox="0 0 16 16" id="search" xmlns="http://www.w3.org/2000/svg"><path fill-rule="evenodd" clip-rule="evenodd" d="M7.333 2.75a4.583 4.583 0 100 9.167 4.583 4.583 0 000-9.167zM1.25 7.333a6.083 6.083 0 1112.167 0 6.083 6.083 0 01-12.167 0z"/><path fill-rule="evenodd" clip-rule="evenodd" d="M10.57 10.57a.75.75 0 011.06 0l2.9 2.9a.75.75 0 11-1.06 1.06l-2.9-2.9a.75.75 0 010-1.06z"/></symbol><symbol viewBox="0 0 32 32" id="sent2" xmlns="http://www.w3.org/2000/svg"><path d="M25.17 6.295a1.467 1.467 0 00-1.53-.343L3.107 13.286a1.465 1.465 0 00-.163 2.691L9.67 19.34l8.596-6.14-6.14 8.598 3.36 6.727c.252.497.76.81 1.313.81l.09-.004a1.467 1.467 0 001.294-.97l7.333-20.535a1.47 1.47 0 00-.346-1.53z"/></symbol><symbol viewBox="0 0 32 32" id="share" xmlns="http://www.w3.org/2000/svg"><path d="M4.607 22.217c1.565-5.545 4.74-9.463 9.373-11.564a20.56 20.56 0 014.74-1.402l.127-.018c.386 0 .388-.012.388-2.75v-2.75l9.565 9.391-9.565 9.391v-5.498h-1.163c-3.051.063-6.05.786-8.784 2.116l.122-.053a16.92 16.92 0 00-3.984 3.138l-.011.013-1.148 1.192.34-1.207z"/></symbol><symbol viewBox="0 0 32 32" id="share2" xmlns="http://www.w3.org/2000/svg"><path fill-rule="evenodd" clip-rule="evenodd" d="M18.605 17.115h1.163v5.539l9.565-9.46-9.565-9.46v2.769c0 2.759-.002 2.77-.388 2.77l-.126.019a20.45 20.45 0 00-4.74 1.412c-4.034 1.843-6.962 5.072-8.685 9.562a22.916 22.916 0 00-.514 1.49l-.001.005a6.185 6.185 0 01-.012.04c-.056.182-.11.365-.162.55v.002L4.8 23.57l1.148-1.202.011-.012a16.975 16.975 0 01.322-.337 16.942 16.942 0 013.53-2.748l.016-.01.116-.067-.121.054.118-.058.047-.022a20.96 20.96 0 018.618-2.052zM9.386 18.36l-.005-.01a21.96 21.96 0 019.203-2.235h2.184v4.143l7.143-7.064-7.143-7.065v.522c0 1.238 0 1.99-.059 2.41-.025.18-.092.633-.475.944a1.19 1.19 0 01-.574.25c-.076.013-.15.017-.204.018l-.045.007c-1.621.28-3.169.752-4.487 1.336-3.576 1.635-6.246 4.438-7.91 8.382a17.984 17.984 0 012.372-1.638z"/></symbol><symbol viewBox="0 -10 511.99 511" id="star-full" xmlns="http://www.w3.org/2000/svg"><path d="M510.652 185.902a27.158 27.158 0 00-23.425-18.71l-147.774-13.419-58.433-136.77C276.71 6.98 266.898.494 255.996.494s-20.715 6.487-25.023 16.534l-58.434 136.746-147.797 13.418a27.208 27.208 0 00-23.402 18.71c-3.371 10.368-.258 21.739 7.957 28.907l111.7 97.96-32.938 145.09c-2.41 10.668 1.73 21.696 10.582 28.094 4.757 3.438 10.324 5.188 15.937 5.188 4.84 0 9.64-1.305 13.95-3.883l127.468-76.184 127.422 76.184c9.324 5.61 21.078 5.097 29.91-1.305a27.223 27.223 0 0010.582-28.094l-32.937-145.09 111.699-97.94a27.224 27.224 0 007.98-28.927zm0 0"/></symbol><symbol viewBox="0 0 32 32" id="star-left" xmlns="http://www.w3.org/2000/svg"><path d="M15.195 26.633c.244-.169.525-.254.805-.254V0c-.565 0-1.13.331-1.367.992l-3.098 8.669a1.467 1.467 0 01-1.303.991l-8.836.404c-.861.039-1.398.78-1.398 1.538 0 .429.172.864.553 1.182l6.921 5.762a1.57 1.57 0 01.498 1.603L5.607 30.06c-.361 1.361 1.086 2.461 2.211 1.681l7.375-5.108z"/></symbol><symbol viewBox="0 0 32 32" id="star-right" xmlns="http://www.w3.org/2000/svg"><path d="M16.805 26.633a1.413 1.413 0 00-.805-.254V0c.565 0 1.13.331 1.367.992l3.097 8.669c.205.574.718.964 1.303.991l8.836.404c.861.039 1.398.78 1.398 1.538 0 .429-.172.864-.553 1.182l-6.921 5.762a1.57 1.57 0 00-.498 1.603l2.363 8.919c.361 1.361-1.086 2.461-2.211 1.681l-7.375-5.108z"/></symbol><symbol viewBox="0 0 16 16" id="sync" xmlns="http://www.w3.org/2000/svg"><path d="M14 8c0 3.309-2.691 6-6 6-3.308 0-6-2.691-6-6s2.692-6 6-6c1.326 0 2.582.433 3.62 1.222L9.218 5.484l6.111.655L15.042 0l-2.437 2.295A7.277 7.277 0 008 .667C3.957.667.667 3.957.667 8S3.957 15.333 8 15.333c4.044 0 7.334-3.29 7.334-7.333H14z"/></symbol><symbol viewBox="0 0 32 32" id="twitter2" xmlns="http://www.w3.org/2000/svg"><path d="M22.06 11.066a1.392 1.392 0 100-2.784 1.392 1.392 0 000 2.784zM15.867 9.91a5.957 5.957 0 100 11.914 5.957 5.957 0 000-11.914zm0 9.823a3.867 3.867 0 110-7.733 3.867 3.867 0 010 7.733z"/><path d="M15.867 6.357c3.097 0 3.464.011 4.687.067a6.42 6.42 0 012.154.4 3.842 3.842 0 012.202 2.201c.255.69.39 1.419.4 2.154.055 1.223.067 1.59.067 4.689 0 3.098-.012 3.463-.068 4.686a6.421 6.421 0 01-.4 2.154 3.841 3.841 0 01-2.201 2.202 6.42 6.42 0 01-2.154.399c-1.223.056-1.59.068-4.687.068-3.098 0-3.465-.012-4.688-.068a6.421 6.421 0 01-2.153-.4 3.843 3.843 0 01-2.202-2.201 6.42 6.42 0 01-.4-2.154c-.056-1.223-.067-1.59-.067-4.687 0-3.098.011-3.465.067-4.688a6.421 6.421 0 01.4-2.154 3.842 3.842 0 012.202-2.202 6.42 6.42 0 012.153-.399c1.223-.056 1.59-.067 4.688-.067zm0-2.09c-3.15 0-3.546.013-4.783.07a8.514 8.514 0 00-2.815.539 5.931 5.931 0 00-3.393 3.393 8.514 8.514 0 00-.54 2.816c-.056 1.237-.07 1.63-.07 4.782 0 3.15.014 3.545.07 4.783.02.962.202 1.914.54 2.815a5.931 5.931 0 003.393 3.393c.901.337 1.853.52 2.816.539 1.237.056 1.631.07 4.782.07 3.15 0 3.546-.014 4.783-.07a8.513 8.513 0 002.816-.54 5.931 5.931 0 003.393-3.392c.337-.902.52-1.854.538-2.816.056-1.238.07-1.631.07-4.782 0-3.152-.014-3.546-.07-4.784a8.513 8.513 0 00-.54-2.814 5.931 5.931 0 00-3.392-3.393 8.513 8.513 0 00-2.816-.539c-1.238-.058-1.63-.07-4.782-.07z"/></symbol><symbol viewBox="0 0 16 16" id="user" xmlns="http://www.w3.org/2000/svg"><path fill-rule="evenodd" clip-rule="evenodd" d="M8 2.75a1.917 1.917 0 100 3.833A1.917 1.917 0 008 2.75zM4.583 4.667a3.417 3.417 0 116.834 0 3.417 3.417 0 01-6.834 0zM2.917 10.25a3.417 3.417 0 012.416-1.001h5.334a3.417 3.417 0 013.416 3.417V14a.75.75 0 01-1.5 0v-1.333a1.916 1.916 0 00-1.916-1.917H5.333a1.916 1.916 0 00-1.916 1.917V14a.75.75 0 01-1.5 0v-1.333c0-.906.36-1.775 1-2.416z"/></symbol><symbol viewBox="0 0 512 512" id="view" xmlns="http://www.w3.org/2000/svg"><path d="M508.745 246.041c-4.574-6.257-113.557-153.206-252.748-153.206S7.818 239.784 3.249 246.035a16.896 16.896 0 000 19.923c4.569 6.257 113.557 153.206 252.748 153.206s248.174-146.95 252.748-153.201a16.875 16.875 0 000-19.922zM255.997 385.406c-102.529 0-191.33-97.533-217.617-129.418 26.253-31.913 114.868-129.395 217.617-129.395 102.524 0 191.319 97.516 217.617 129.418-26.253 31.912-114.868 129.395-217.617 129.395z"/><path d="M255.997 154.725c-55.842 0-101.275 45.433-101.275 101.275s45.433 101.275 101.275 101.275S357.272 311.842 357.272 256s-45.433-101.275-101.275-101.275zm0 168.791c-37.23 0-67.516-30.287-67.516-67.516s30.287-67.516 67.516-67.516 67.516 30.287 67.516 67.516-30.286 67.516-67.516 67.516z"/></symbol><symbol viewBox="0 0 32 32" id="zoom" xmlns="http://www.w3.org/2000/svg"><path d="M10.471 28.235a1.883 1.883 0 110 3.765H2a1.883 1.883 0 01-1.882-1.882v-8.471a1.883 1.883 0 013.764 0v3.927l6.904-6.904a1.882 1.882 0 012.662 2.662l-6.904 6.904h3.927zM21.647 3.883a1.883 1.883 0 110-3.765h8.471C31.157.118 32 .962 32 2v8.471a1.883 1.883 0 01-3.764 0V6.544l-6.905 6.904a1.882 1.882 0 01-2.662-2.662l6.904-6.904h-3.927z"/></symbol></svg>